<svg xmlns="http://www.w3.org/2000/svg" width="11.754" height="6.27" viewBox="0 0 11.754 6.27">
  <g id="check2-all" transform="translate(-2.248 -7.872)">
    <path id="Tracé_6" data-name="Tracé 6" d="M11.144,7.988a.392.392,0,0,1,0,.555L5.66,14.027a.392.392,0,0,1-.555,0L2.363,11.285a.392.392,0,1,1,.555-.555L5.383,13.2,10.59,7.988a.392.392,0,0,1,.555,0Z" fill="#2f8b60" fill-rule="evenodd"/>
    <path id="Tracé_7" data-name="Tracé 7" d="M11.5,11.434l-.7-.7a.392.392,0,0,0-.555.555l.7.7.554-.554Zm.783,1.892.7.7a.392.392,0,0,0,.555,0L19.02,8.544a.392.392,0,0,0-.555-.555L13.258,13.2l-.426-.426-.554.554Z" transform="translate(-5.133 -0.001)" fill="#2f8b60"/>
  </g>
</svg>
